<svg width="39" height="56" viewBox="0 0 39 56" fill="none" xmlns="http://www.w3.org/2000/svg">
<path d="M37.6919 41.5225L37.7037 41.558L37.7392 41.5462L37.7274 41.558C37.5499 41.6764 37.5972 41.8775 37.5499 42.0314C36.9937 44.3151 35.9169 46.3386 34.5561 48.2437C31.8819 52.0065 28.2374 54.3968 23.8118 55.4618C19.6585 56.4676 15.5524 56.0297 11.5766 54.4323C9.10347 53.4265 6.85521 52.0657 5.03294 50.1133C1.27006 46.0782 -0.351059 41.274 0.0630948 35.7717C0.382585 31.571 2.0747 27.9146 4.47679 24.5422C4.51229 24.4949 4.52412 24.4239 4.59512 24.4003C4.35846 26.2107 4.29929 27.9856 4.68978 29.7487C5.0566 31.4054 5.97957 32.6833 7.48236 33.6063C7.34036 32.2337 7.19837 30.9202 7.05637 29.6068C7.05637 29.5476 7.05637 29.4766 7.04454 29.4174C7.00904 27.7845 7.05637 26.1515 7.52969 24.5659C7.67168 24.0808 7.84918 23.6074 8.01484 23.1223C8.29883 22.5543 8.58282 21.9745 8.86681 21.4065C8.90231 21.3474 8.93781 21.2882 8.97331 21.229C9.03247 21.1344 9.09164 21.0279 9.1508 20.9332C9.1863 20.874 9.2218 20.8149 9.2573 20.7557C9.45846 20.4599 9.65962 20.1641 9.87261 19.8682C9.95544 19.7499 10.0264 19.6316 10.1093 19.5132C10.1329 19.4777 10.1566 19.4541 10.1921 19.4186C10.3578 19.2056 10.5234 18.9808 10.6891 18.7678H10.6773L10.9376 18.4601C11.0086 18.3654 11.0796 18.2826 11.1506 18.188H11.1387C11.1742 18.1525 11.2097 18.117 11.2452 18.0933C11.2689 18.0578 11.3044 18.0223 11.3281 17.9868C11.3991 17.8921 11.4701 17.8093 11.5411 17.7146C11.6002 17.6436 11.6594 17.5845 11.7186 17.5135C11.7896 17.4188 11.8724 17.336 11.9434 17.2413C12.0025 17.1822 12.0499 17.1112 12.109 17.052C12.1445 17.0165 12.1682 16.981 12.2037 16.9455C12.2747 16.8627 12.3339 16.7798 12.4049 16.6852C12.6297 16.484 12.8072 16.2474 12.9728 15.987C12.9965 15.9515 13.032 15.916 13.0557 15.8805C13.2568 15.632 13.458 15.3835 13.6592 15.1351C13.7065 15.0641 13.7657 15.0049 13.813 14.9339C13.9195 14.8037 14.0141 14.6854 14.1206 14.5552C14.1443 14.5197 14.168 14.4961 14.2035 14.4606C14.3336 14.2949 14.452 14.1411 14.5821 13.9754C14.6768 13.8571 14.7715 13.7269 14.8661 13.6086C15.0081 13.4074 15.1619 13.2181 15.3039 13.017C15.3513 12.9578 15.3868 12.8986 15.4341 12.8276C15.6116 12.6738 15.7418 12.4726 15.8483 12.2596C15.8719 12.2241 15.8956 12.1886 15.9074 12.1531C15.9311 12.1177 15.9548 12.094 15.9784 12.0585C18.4042 8.44944 18.7237 4.65106 16.9961 0.675184C16.9014 0.450358 16.8067 0.201866 16.5937 0.0362046C16.7002 -0.0347931 16.8067 0.0125387 16.9132 0.0598705C18.0728 0.616019 19.1615 1.24317 20.0253 2.21347C20.9719 3.27843 21.9896 4.29607 22.8179 5.46753C24.1432 7.33714 25.078 9.36057 25.3974 11.6443C25.6578 13.5376 25.5868 15.419 25.2318 17.3123C24.9241 18.9926 24.2615 20.5782 23.9657 22.2585C23.8 23.217 23.7408 24.1873 24.0248 25.1339C24.2851 26.0095 24.7821 26.755 25.6223 27.0982C26.8766 27.5952 27.8942 26.826 28.0125 25.3824C28.1072 24.3648 28.0244 23.3471 27.8942 22.3413C27.5629 19.8564 28.6397 18.0105 30.4856 16.4958C30.7459 16.2828 30.9826 16.0225 31.3967 15.8805C30.7933 17.265 30.8643 18.6376 31.0891 19.9984C31.2429 20.9805 31.5624 21.9272 32.0357 22.8028C32.5919 23.8559 33.2427 24.8499 33.9527 25.8084C33.9763 25.8439 34 25.8794 34.0355 25.9149C34.071 25.974 34.1183 26.0332 34.1538 26.1042C34.2012 26.1752 34.2485 26.2344 34.2958 26.3054C34.7218 27.0035 35.1596 27.7016 35.5856 28.3998C35.6093 28.4353 35.6329 28.4708 35.6566 28.5063C35.6921 28.5655 35.7276 28.6246 35.7513 28.6838C35.8104 28.8021 35.8696 28.9086 35.9406 29.0269C35.9643 29.0743 35.9761 29.1216 35.9998 29.1571C36.0471 29.2399 36.0944 29.3228 36.1418 29.4056C36.1773 29.4884 36.2128 29.5594 36.2483 29.6423C36.3429 29.8316 36.4258 30.0209 36.5204 30.2102C36.5559 30.3049 36.5914 30.3996 36.6388 30.4942C36.6979 30.6244 36.7571 30.7664 36.8044 30.8965C36.8044 30.9202 36.8044 30.9439 36.8281 30.9675C36.8872 31.1095 36.9346 31.2397 36.9937 31.3817C36.9937 31.4054 36.9937 31.429 37.0174 31.4409C37.0411 31.5119 37.0647 31.571 37.0884 31.642C37.1002 31.7722 37.1239 31.9023 37.2067 32.0207C37.2304 32.0917 37.2422 32.1627 37.2659 32.2218C37.2896 32.3165 37.3132 32.4112 37.3369 32.5058C37.3487 32.5413 37.3487 32.565 37.3606 32.6005C37.3842 32.6597 37.3961 32.7188 37.4197 32.778C37.5381 33.4761 37.7037 34.1624 37.8339 34.8488C38.1652 36.5409 38.106 38.2211 37.9285 39.9133C37.8575 40.4339 37.7629 40.9782 37.6919 41.5225Z" fill="#EB6464"/>
<path d="M16.6766 43.2264C16.6766 43.1791 16.6766 43.1199 16.6766 43.0726C16.7121 43.0371 16.724 43.0016 16.7003 42.9542C16.7121 42.9187 16.7121 42.8951 16.724 42.8596C16.8778 42.6466 16.937 42.4217 16.866 42.1733C17.1144 40.9426 17.3629 39.7002 17.6233 38.4695C17.6588 38.3157 17.6351 38.2329 17.5168 38.1382C16.8305 37.5466 16.4636 36.7893 16.5228 35.89C16.6056 34.5883 17.4339 33.5707 18.8066 33.4169C20.0845 33.2749 21.2441 34.1387 21.4808 35.393C21.6938 36.5526 21.4571 37.5584 20.4277 38.2684C20.3212 38.3394 20.333 38.4104 20.3567 38.5169C20.6762 39.996 20.9838 41.4751 21.3033 42.9542C21.3388 43.1436 21.3506 43.3211 21.1968 43.463C20.9602 43.4749 20.7235 43.5104 20.4987 43.5104C19.4929 43.5104 18.4752 43.5104 17.4694 43.5222C17.1618 43.4985 16.8896 43.4512 16.6766 43.2264Z" fill="white"/>
</svg>
